<?xml version="1.0" encoding="utf-8"?>
<!-- Generator: Adobe Illustrator 22.0.0, SVG Export Plug-In . SVG Version: 6.00 Build 0)  -->
<svg version="1.1" id="Layer_1" xmlns="http://www.w3.org/2000/svg" xmlns:xlink="http://www.w3.org/1999/xlink" x="0px" y="0px"
	 viewBox="0 0 640 324.7" style="enable-background:new 0 0 640 324.7;" xml:space="preserve">
<style type="text/css">
	.st0{fill:#CBA104;}
	.st1{fill:#333333;}
	.st2{fill:#FFFFFF;stroke:#000000;stroke-width:0.5;stroke-miterlimit:10;}
	.st3{fill:#333333;stroke:#1A1A1A;stroke-width:0.25;stroke-miterlimit:10;}
	.st4{fill:#F2F2F2;stroke:#000000;stroke-width:0.25;stroke-miterlimit:10;}
	.st5{fill:#FFFFFF;}
	.st6{fill:#1A1A1A;}
</style>
<rect y="-1" class="st0" width="640" height="326"/>
<g>
	<path class="st1" d="M63.9,48.4H97l3.5,46c0.4,4.1,0.4,8.6,0,11.6h0.2c0.8-3,2.5-7.7,4.3-11.9l19.2-45.7h35.9l-15,85.2h-22.9
		l9.5-53.8c0.6-3.1,1.3-6.5,2.2-10h-0.2c-0.7,2.8-1.9,5.6-2.8,7.6l-24.1,56.2H86.3l-5.4-56.2c-0.2-2-0.2-4.8-0.1-7.3h-0.2
		c-0.2,3-0.6,6.4-1.2,9.7l-9.5,53.8h-21L63.9,48.4z"/>
	<path class="st1" d="M162.2,96.8c0-25.2,14.2-50.4,47.9-50.4c26.2,0,41.4,13.9,41.4,38.9c0,25.2-14.2,50.4-47.9,50.4
		C177.4,135.6,162.2,121.7,162.2,96.8z M225.7,86.6c0-16-7.3-20.9-16-20.9c-16.1,0-21.7,15.2-21.7,29.8c0,16,7.3,20.9,16,20.9
		C220,116.3,225.7,101.1,225.7,86.6z"/>
	<path class="st1" d="M256.5,48.4h26l4.3,50.6c0.5,5.2,0.6,8.4,0.4,11.9h0.5c1-3.5,2.3-6.7,4.6-11.9l22.2-50.6h28l-43.2,85.2h-29.5
		L256.5,48.4z"/>
	<path class="st1" d="M371.6,66.4l-2.6,14.9h34.2L400,98.9h-34.2l-3,16.7h37.1l-3.1,18h-62.2l15-85.2h61.3l-3.1,18H371.6z"/>
	<path class="st1" d="M42.1,262.8l18.7-14.8c5.3,8.3,12.8,12.4,22.6,12.4c9.2,0,11.9-3.6,11.9-7.8c0-4.3-2.9-5.8-9.1-7l-8.5-1.7
		c-12.6-2.5-22.3-10.2-22.3-25.1c0-14,8.5-28.6,35.5-28.6c14,0,27.7,4,37,13.9l-16.9,15.2c-4.8-7.2-11.8-10.8-20.8-10.8
		c-7.6,0-11.5,2.5-11.5,7.1c0,3.2,2,5.4,9.6,7.1l10.8,2.4c14.2,3.1,20.9,11.9,20.9,25.1c0,16.2-10.2,29.3-37.1,29.3
		C65,279.6,49.6,273.9,42.1,262.8z"/>
	<path class="st1" d="M201.3,212.1h-23.6l-11.5,65.5h-25.1l11.5-65.5h-23.6l3.5-19.7h72.4L201.3,212.1z"/>
	<path class="st1" d="M234.5,210.4l-2.6,14.9h34.2l-3.1,17.6h-34.2l-3,16.7h37.1l-3.1,18h-62.2l15-85.2h61.3l-3.1,18H234.5z"/>
	<path class="st1" d="M330.9,260.2h-29.4l-8.4,17.4h-26.2l45.2-85.2h29.8l15.2,85.2h-24L330.9,260.2z M328.6,243.4l-2.4-18.5
		c-0.5-3.5-1-8.8-1-15.1H325c-2.2,6.4-4.2,10.4-6.5,15.1l-8.9,18.5H328.6z"/>
	<path class="st1" d="M380.6,192.4h25.1l-11.4,65h32l-3.6,20.2h-57.1L380.6,192.4z"/>
	<path class="st1" d="M469.8,210.4l-2.6,14.9h34.2l-3.1,17.6h-34.2l-3,16.7h37.1l-3.1,18h-62.2l15-85.2h61.3l-3.1,18H469.8z"/>
	<path class="st1" d="M571.5,243.2l10.9,34.4h-26.9l-8.4-31.2h-9.5l-5.5,31.2H507l15-85.2h37.1c15.7,0,32.2,4.9,32.2,24.2
		C591.3,228.5,586.4,238.8,571.5,243.2z M540.5,230.2h10c11.6,0,14.4-6.8,14.4-11.9c0-7.3-5.9-9.1-10.7-9.1h-10L540.5,230.2z"/>
</g>
<g>
	<path class="st1" d="M524,69.7c0,0,8.8-15.9,12.8-17.9c0,0,4.8-6.8,11.4-4.5c0,0,8.2,1.9,10.4,4.2c0,0,10.8,0.2,12.1,4.3
		c0,0-10.6,1.5-13.3,4.1c-2.7,2.7-5.6,9.1-4.1,13.6s5.1,32.2-25.1,49.4c0,0-3.2-1.7-4.3-0.8c-1.2,0.8-4,3.2-1.3,5.6
		c2.7,2.5,11.3,9.8,11.3,9.8s6.8,0.5,8.6,4c0,0.8-2.3-1.2-7-1c-4.6,0.2-8-0.3-8-0.3s-5.3-0.3-6.1,0.3c-0.8,0.7,2-3.7,7.5-2.3l0.7-1
		c0,0-8.1-8.5-10.6-9.1c-2.5-0.7-3.7-3.5-4.3-5c0,0-4.5-1.3-4.8-1c-0.3,0.3,0,3.5,0,3.5s3.3,9,5.6,11.8c0,0,3.5,3.5,9.6,4.3
		c0,0-5.8,1.3-6.8,0c0,0-5.3-0.8-8.6-0.2c-3.3,0.7-5,0.2-2-2.8l5.5,0.3c0,0-2.2-8.8-7-13.1c0,0-2.2-1.5-4.1-7c0,0-5.8-0.2-11.6-2.2
		c0,0-32,19.4-40.7,19.1c0,0-6.8,4.8-8.1,5.1c-1.3,0.3-6-0.2-6-0.2s-6,1.8-10.3,4.5c0,0-5.8,3,0.7-4.5c0,0-6.6,1.3,5-3.3
		c0,0,29.9-13.9,41.3-20.4l6.1-5l-5.5,2c0,0,0.7-2.2,8.1-4.5c0,0,5.5-10.8,17.6-17.3C498.7,92.5,509.5,73.5,524,69.7z"/>
	<path class="st2" d="M510,87.4c0,0,0-6.6,4.6-8.6c0,0,11.3-6,14.1-2.7c1,1.3,0.8,3.5,0.8,3.5s3.5,16.6,9.8,21.7
		c6.3,5.1,10.7-0.8,10.7-0.8S540,118,529.2,122.5c0,0-4.3-0.4-4.6-0.4c-1-0.2-2.7,2-2.7,2c-1.1,0.2-1.3-1-2.5-0.8
		c-0.6,0.1-1.7,0.9-2.7,0.8c-0.7,0-1.7-0.8-2.2-0.8c0,0-3.2-0.8-4.8-1l-0.2,2.5c-1.4,0.3-5-1.5-6.1-2.2c-0.6-0.4-0.9-3-1.5-3.5
		c-2.5-2.2-4.2-5.8-3.7-12.6c0.5-0.8,1.3-3.3,8.6-7C514.3,95.9,510,87.4,510,87.4z"/>
	<path class="st3" d="M529.1,82.9c0,0-6.5,12.6-20.6,17.1c-2.7,1.3-20.4,5.6-21.9,9.3c-1.5,3.7-7.1,5.3-7.1,5.3s3.2-9.3,16.4-16.8
		c0,0,16.4-14.1,28.2-13.9L529.1,82.9z"/>
	<path class="st4" d="M570.8,55.9c0,0-9.3-1.8-18.6,1.8c0,0,3.5,1.6,6.2,1.6C558.5,59.3,563.9,56.2,570.8,55.9z"/>
	<path class="st4" d="M570.8,55.9c-7-2.2-18.6,1.8-18.6,1.8c1.3-2.2,8.6-3,9.3-3.3s-2.8-2.8-2.8-2.8S569.8,51.9,570.8,55.9z"/>
	<path class="st5" d="M545.5,53.9c0,0,2,4.7,4.9,0C548.2,50.7,546.8,51.9,545.5,53.9z"/>
	<path d="M546,53.9c0,0,1.7,3.8,4,0C548.2,51.2,547,52.2,546,53.9z"/>
</g>
<path class="st1" d="M507.4,106.6c-0.3,0.1-0.4,0.4-0.7,0.6c-0.2,0.2-0.5,0.4-0.7,0.7c-0.2,0.2-0.4,0.5-0.6,0.7
	c-0.2,0.2-0.4,0.3-0.5,0.6c0,0,0,0,0,0c0.5,0,1.2-0.4,1.5-0.7c0.4-0.4,1.1-0.9,1.3-1.5C507.9,106.7,507.6,106.4,507.4,106.6z"/>
<path class="st1" d="M509.3,111.5c-0.4,0.2-0.9,0.6-1.1,1c-0.2,0.4-0.6,0.8-0.6,1.3c0,0.1,0.1,0.2,0.2,0.2c0.4-0.2,0.9-0.7,1.2-1
	c0.3-0.3,0.6-0.8,0.6-1.2C509.6,111.6,509.4,111.5,509.3,111.5z"/>
<path class="st1" d="M513.5,114.3c-0.8,0.7-1.5,1.5-2.1,2.3c0,0,0,0,0,0c0.8-0.6,1.6-1.4,2.2-2.2
	C513.7,114.4,513.6,114.3,513.5,114.3z"/>
<path class="st1" d="M514.9,110.2c-0.4,0.2-0.9,0.5-1.1,1c0,0.1,0,0.2,0.1,0.2c0.5-0.1,0.9-0.5,1.2-1
	C515.2,110.3,515.1,110.2,514.9,110.2z"/>
<path class="st1" d="M513,107.3c-0.6,0-1.2,0.4-1.6,0.8c-0.4,0.3-1.1,0.9-1.1,1.5c0,0.2,0.2,0.4,0.4,0.3c0.5-0.1,0.9-0.7,1.2-1.1
	c0.4-0.4,0.9-0.7,1.3-1.1C513.2,107.5,513.1,107.3,513,107.3z"/>
<path class="st1" d="M515.6,117.1c-0.7,0.3-1.1,0.7-1.5,1.3c0,0.1,0,0.1,0.1,0.1c0.5-0.4,1.1-0.7,1.6-1
	C516,117.4,515.8,117,515.6,117.1z"/>
<path class="st1" d="M510.2,119c-0.1-0.1-0.2-0.2-0.3-0.1c-0.3,0.1-0.3,0.4-0.5,0.6c-0.2,0.2-0.4,0.5-0.7,0.7c-0.1,0,0,0.1,0,0.1
	c0.4,0.1,0.8,0,1.1-0.3C510.1,119.7,510.4,119.3,510.2,119z"/>
<path class="st1" d="M507.8,117.3C507.8,117.3,507.7,117.2,507.8,117.3c-0.2-0.1-0.4,0-0.4,0.1c-0.3,0.5-0.9,1-1.5,1.1
	c-0.2,0-0.2,0.4,0,0.4c1,0.1,1.7-0.4,2.1-1.2C508,117.5,507.9,117.3,507.8,117.3z"/>
<path class="st1" d="M505.4,112.9c-0.5,0.1-0.9,0.4-1.3,0.8c-0.4,0.4-0.6,0.7-0.6,1.2c0,0.1,0.1,0.1,0.1,0.1
	c0.1-0.1,0.3-0.1,0.5-0.2c0.2-0.1,0.3-0.4,0.5-0.5c0.3-0.3,0.7-0.5,1-0.9C505.8,113.2,505.7,112.8,505.4,112.9z"/>
<path class="st1" d="M522.8,116.5c-0.5,0.8-1,1.6-1.7,2.3c0,0,0,0.1,0.1,0.1c0.8-0.7,1.4-1.4,1.8-2.3
	C523,116.5,522.8,116.5,522.8,116.5z"/>
<path class="st1" d="M521.2,111.4c-0.1-0.2-0.3-0.2-0.4,0c-0.1,0.8-0.2,1.5-0.5,2.2c-0.2,0.6-0.6,1.1-0.7,1.7c0,0.1,0.1,0.1,0.1,0.1
	c0.6-0.2,1.1-1,1.3-1.6C521.3,113.1,521.4,112.2,521.2,111.4z"/>
<path class="st1" d="M529.4,114c-0.1-0.1-0.2-0.1-0.3,0.1c-0.1,0.4-0.1,0.9,0,1.3c0,0.5-0.1,1-0.2,1.5c0,0,0,0,0,0
	C529.4,116.1,530,114.8,529.4,114z"/>
<path class="st1" d="M532.2,117.3c-0.7,0.3-1.3,0.8-1.9,1.3c0,0,0,0.1,0.1,0.1c0.7-0.3,1.5-0.6,2.1-1.1
	C532.7,117.5,532.5,117.2,532.2,117.3z"/>
<path class="st1" d="M527.5,119c-0.6,0.2-1.2,1-1.3,1.7c0,0,0,0.1,0.1,0c0.6-0.1,1.4-0.8,1.5-1.4C527.8,119.2,527.7,118.9,527.5,119
	z"/>
<path class="st1" d="M522.8,120.4c-0.5,0.4-1,0.8-1.4,1.3c-0.1,0.1,0,0.2,0.1,0.1c0.5-0.4,1-0.7,1.4-1.2
	C523,120.5,522.9,120.3,522.8,120.4z"/>
<path class="st1" d="M518.2,119.3c-0.4,0.3-0.5,0.7-0.8,1.1c-0.3,0.4-0.6,0.8-1,1.1c-0.1,0.1,0,0.4,0.2,0.3c0.8-0.5,1.9-1.3,2-2.3
	C518.6,119.3,518.3,119.2,518.2,119.3z"/>
<path class="st5" d="M531.3,66.3c-0.5,0.5-1.2,0.8-1.8,1.3c-0.1,0,0,0.2,0.1,0.1C530.3,67.5,530.9,66.9,531.3,66.3
	C531.4,66.3,531.3,66.2,531.3,66.3z"/>
<path class="st5" d="M533.7,63.9C533.7,63.9,533.7,63.9,533.7,63.9c-0.1,0.7-0.1,1.4-0.2,2.2c-0.1,0.8-0.5,1.5-0.9,2.2
	c-0.1,0.1,0.1,0.3,0.2,0.2C533.9,67.4,534.4,65.3,533.7,63.9z"/>
<path class="st5" d="M535.1,68.7c-0.1,0.4-0.2,0.8-0.4,1.2c-0.2,0.4-0.5,0.6-0.7,0.9c0,0,0,0.1,0,0.1c0.9-0.1,1.6-1.3,1.6-2.1
	C535.6,68.6,535.2,68.4,535.1,68.7z"/>
<path class="st5" d="M531,70.3c-0.4,0.3-0.8,1-1.4,0.9c-0.1,0-0.1,0.1,0,0.1c0.4,0,0.7,0.2,1.1-0.1c0.3-0.2,0.6-0.4,0.5-0.8
	C531.2,70.3,531,70.3,531,70.3z"/>
<path class="st5" d="M528.4,69.7c-0.2,0-1.4,0.2-1.3,0.3c0.2,0.4,1.1,0.1,1.4-0.1C528.6,69.8,528.6,69.7,528.4,69.7z"/>
<path class="st5" d="M530.8,68.4c-0.3,0.2-0.5,0.7-0.7,1.1c0,0.1,0,0.1,0.1,0.1c0.3-0.3,0.7-0.6,0.8-1
	C531,68.4,530.9,68.3,530.8,68.4z"/>
<path class="st5" d="M536.3,71.7c-0.5,0.4-1,1.1-1.3,1.6c-0.3,0.5-0.7,1.1-0.8,1.7c0,0,0,0.1,0.1,0c0.6-0.3,1-0.9,1.4-1.4
	c0.4-0.5,0.9-1.1,1-1.7C536.7,71.7,536.5,71.5,536.3,71.7z"/>
<path class="st5" d="M551,80.5c-0.1-0.4-0.7-0.3-0.6,0.1c0.4,2.9,0,5.6-1.7,8c-0.1,0.1,0.1,0.3,0.2,0.2
	C550.4,86.3,551.3,83.5,551,80.5z"/>
<path class="st5" d="M548.4,82.2c-0.6,2.3-1.8,4-3.6,5.6c-0.1,0.1,0,0.4,0.2,0.3c2.1-1.3,3.3-3.5,3.6-5.9
	C548.6,82,548.4,82,548.4,82.2z"/>
<path class="st5" d="M551.9,88c-0.5,0.9-0.9,1.9-1.6,2.7c-0.7,0.8-1.6,1.6-2.6,2.2c0,0,0,0,0,0c2.1-0.7,4.1-2.5,4.4-4.8
	C552.2,87.9,552,87.8,551.9,88z"/>
<path class="st1" d="M566.8,53.5c-0.3,0-0.3,0.3-0.2,0.5c0.5,0.3,0.9,0.6,1.4,0.8c0.1,0,0.2,0,0.1-0.1
	C568,53.9,567.5,53.6,566.8,53.5z"/>
<path class="st6" d="M512.2,89.4c-1.8,0.3-3.6,1.6-5.1,2.6c-1.7,1.2-3.2,2.7-4.3,4.5c-0.2,0.4,0.2,0.7,0.6,0.5
	c1.5-1.2,2.9-2.5,4.5-3.7c1.5-1.2,3.3-1.9,4.8-3.1C512.9,89.8,512.6,89.3,512.2,89.4z"/>
<path class="st6" d="M519.4,89.1c-1.3,0.7-2.5,1.8-3.8,2.6c-1.3,0.8-2.7,1.5-4.1,2.3c-0.1,0-0.1,0.1,0,0.1c3,0,6.8-2,8.1-4.9
	C519.7,89.2,519.6,89,519.4,89.1z"/>
<path class="st6" d="M524.5,86.1c-3.1-0.6-8.5,0.1-10.6,2.7c-0.2,0.2,0.1,0.5,0.3,0.5c1.6-0.2,3.1-1.1,4.7-1.5
	c1.8-0.5,3.6-0.4,5.4-0.6C524.9,87.2,525.3,86.2,524.5,86.1z"/>
<path class="st6" d="M510.6,95.7c-2.7,0.6-5.2,2.2-7.9,3c-2.4,0.7-4.9,1.1-7.3,1.9c-0.3,0.1-0.2,0.6,0.1,0.7
	c2.9,0.2,5.8-0.6,8.5-1.5c2.4-0.8,5.1-1.6,7-3.2C511.4,96.2,511.1,95.6,510.6,95.7z"/>
<path class="st6" d="M484.6,108.3c-1.4,1.1-2.5,2.6-2.7,4.4c0,0.1,0.1,0.1,0.2,0.1c1-1.3,1.8-2.9,2.7-4.3
	C484.8,108.3,484.7,108.2,484.6,108.3z"/>
<path class="st6" d="M494.7,99.8c-1.6,0.4-3,1.7-4.3,2.7c-1.5,1.2-2.9,2.3-3.8,4.1c-0.1,0.2,0.1,0.3,0.3,0.2
	c1.4-1.1,2.5-2.4,3.8-3.6c1.3-1.2,3-1.9,4.2-3C495.1,100.1,494.9,99.7,494.7,99.8z"/>
<path class="st6" d="M507.3,90.8c-2.1,0.5-3.8,2-5.4,3.3c-2,1.6-4.3,3-6,5c-0.2,0.2,0,0.6,0.3,0.4c2.2-1.3,4.1-3.1,6.3-4.5
	c1.8-1.2,3.8-2.1,5.1-3.7C507.8,91,507.6,90.7,507.3,90.8z"/>
</svg>
