<?xml version="1.0" encoding="utf-8"?>
<!-- Generator: Adobe Illustrator 22.0.0, SVG Export Plug-In . SVG Version: 6.00 Build 0)  -->
<svg version="1.1" id="Layer_1" xmlns="http://www.w3.org/2000/svg" xmlns:xlink="http://www.w3.org/1999/xlink" x="0px" y="0px"
	 viewBox="0 0 199 199" style="enable-background:new 0 0 199 199;" xml:space="preserve">
<style type="text/css">
	.st0{fill:#90ECB6;}
	.st1{fill:#FFFFFF;}
</style>
<circle class="st0" cx="99.1" cy="99.6" r="99.5"/>
<g>
	<path class="st1" d="M152.6,110.2c4.4,5,6.6,11.5,6.6,19.5c0,9.8-3.5,17.9-10.6,24.3c-7,6.4-17.8,9.6-32.2,9.6H45.3v-120h69.5
		c13.7,0,24.1,2.8,31,8.5c6.9,5.7,10.4,13.1,10.4,22.2c0,6.3-1.9,11.9-5.7,16.6c-3.8,4.8-9.4,8-16.7,9.7
		C141.9,102.1,148.2,105.2,152.6,110.2z M76.6,64.8v27.9h29.9c6.2,0,10.6-1.3,13.3-4c2.6-2.6,4-6.1,4-10.2c0-4.1-1.4-7.4-4.1-9.9
		c-2.8-2.5-7.1-3.8-13.1-3.8H76.6z M122.2,138.3c3-2.9,4.6-6.6,4.6-11.2c0-4.5-1.5-8.1-4.6-10.7c-3-2.6-7.5-4-13.4-4H76.6v30.3h31.8
		C114.5,142.6,119.2,141.1,122.2,138.3z"/>
</g>
</svg>
