<?xml version="1.0" encoding="utf-8"?>
<!-- Generator: Adobe Illustrator 22.0.0, SVG Export Plug-In . SVG Version: 6.00 Build 0)  -->
<svg version="1.1" id="Layer_1" xmlns="http://www.w3.org/2000/svg" xmlns:xlink="http://www.w3.org/1999/xlink" x="0px" y="0px"
	 viewBox="0 0 199 199" style="enable-background:new 0 0 199 199;" xml:space="preserve">
<style type="text/css">
	.st0{fill:#FFABCA;}
	.st1{fill:#FFFFFF;}
</style>
<circle class="st0" cx="99.1" cy="99.6" r="99.5"/>
<g>
	<path class="st1" d="M141.5,46.3c7,3.2,12.3,7.6,16.1,13.4c3.7,5.8,5.6,12.6,5.6,20.4c0,8.1-1.9,15.2-5.7,21.3
		c-3.8,6.1-9.2,10.8-16.2,14c-7,3.3-15.3,4.9-24.8,4.9H83.7v41.2H52.4v-120h64.4C126.3,41.6,134.5,43.2,141.5,46.3z M124.8,94.1
		c3.7-3.2,5.6-7.5,5.6-13.2c0-5.6-1.8-10-5.5-13c-3.7-3-8.8-4.6-15.5-4.6H83.7v35.5h25.5C115.9,98.9,121,97.3,124.8,94.1z"/>
</g>
</svg>
