<?xml version="1.0" encoding="utf-8"?>
<!-- Generator: Adobe Illustrator 22.0.0, SVG Export Plug-In . SVG Version: 6.00 Build 0)  -->
<svg version="1.1" id="Layer_1" xmlns="http://www.w3.org/2000/svg" xmlns:xlink="http://www.w3.org/1999/xlink" x="0px" y="0px"
	 viewBox="0 0 199 199" style="enable-background:new 0 0 199 199;" xml:space="preserve">
<style type="text/css">
	.st0{fill:#A8E0DF;}
	.st1{fill:#FFFFFF;}
</style>
<circle class="st0" cx="99.1" cy="99.6" r="99.5"/>
<g>
	<path class="st1" d="M32.9,131.8c-6.3-3.1-10.9-7.2-13.8-12.3l13.2-9.1c2.4,3.9,5.5,6.9,9.5,9.2c4,2.3,8.7,3.4,14.2,3.4
		c4.6,0,8.1-0.7,10.7-2c2.5-1.3,3.8-3.3,3.8-6c0-2.4-0.8-4.1-2.3-5.2c-1.5-1.1-4.2-2-7.9-2.6l-14.3-2.2c-7.3-1.2-12.7-3.5-16.4-6.9
		c-3.6-3.4-5.5-8.2-5.5-14.3c0-4.3,1.2-8.1,3.7-11.3c2.5-3.2,6.1-5.7,10.8-7.4c4.7-1.7,10.4-2.6,16.9-2.6c7.3,0,13.8,1.2,19.5,3.5
		c5.7,2.3,10.1,5.8,13.3,10.5l-11.7,9.8c-2-3.4-5-6.1-8.8-8c-3.9-1.9-8.3-2.9-13.3-2.9c-4.1,0-7.2,0.6-9.5,1.9
		c-2.3,1.2-3.4,3-3.4,5.3c0,2.2,0.8,3.9,2.3,5c1.5,1.1,4.2,2,8.1,2.8l13.7,2.1c7.8,1.2,13.5,3.4,17.2,6.6c3.7,3.2,5.5,7.9,5.5,14.1
		c0,4.7-1.3,8.8-3.9,12.2c-2.6,3.4-6.4,6.1-11.4,8c-5,1.9-11,2.9-18,2.9C46.7,136.5,39.3,134.9,32.9,131.8z"/>
	<path class="st1" d="M91,85.3h16.9l7.8,29.7c0.3,1.3,0.7,3,1,5.2h0.2c0.2-1.5,0.6-3.2,1.2-5.2l8.8-29.7h16.3L152,115
		c0.6,1.7,1,3.4,1.2,5.2h0.2c0.1-0.7,0.5-2.5,1-5.2l7.8-29.7h17l-16,49.1h-17.9l-8.9-28.4c-0.7-2.3-1-4-1.1-5.2h-0.3
		c-0.3,1.8-0.7,3.6-1.2,5.2l-8.8,28.4H107L91,85.3z"/>
</g>
</svg>
