<?xml version="1.0" encoding="utf-8"?>
<!-- Generator: Adobe Illustrator 22.0.0, SVG Export Plug-In . SVG Version: 6.00 Build 0)  -->
<svg version="1.1" id="Layer_1" xmlns="http://www.w3.org/2000/svg" xmlns:xlink="http://www.w3.org/1999/xlink" x="0px" y="0px"
	 viewBox="0 0 199 199" style="enable-background:new 0 0 199 199;" xml:space="preserve">
<style type="text/css">
	.st0{fill:#F8A678;}
	.st1{fill:#FFFFFF;}
</style>
<circle class="st0" cx="99.5" cy="99.5" r="99.5"/>
<g>
	<path class="st1" d="M65.6,151.9c-10.3-5-17.8-11.7-22.4-20l21.4-14.9c3.8,6.3,9,11.3,15.5,14.9c6.5,3.7,14.2,5.5,23,5.5
		c7.5,0,13.2-1.1,17.3-3.2c4.1-2.1,6.2-5.4,6.2-9.7c0-3.8-1.3-6.7-3.8-8.5c-2.5-1.8-6.8-3.2-12.9-4.2l-23.3-3.5
		c-11.8-1.9-20.7-5.6-26.6-11.2c-5.9-5.5-8.9-13.3-8.9-23.2c0-7,2-13.2,6.1-18.4c4-5.2,9.9-9.2,17.6-12c7.7-2.8,16.8-4.2,27.5-4.2
		c11.9,0,22.5,1.9,31.7,5.7c9.2,3.8,16.4,9.5,21.6,17l-19,16c-3.3-5.5-8.1-9.9-14.4-12.9c-6.3-3.1-13.5-4.6-21.6-4.6
		c-6.6,0-11.7,1-15.4,3c-3.7,2-5.5,4.9-5.5,8.6c0,3.6,1.3,6.3,3.8,8.1c2.5,1.8,6.9,3.3,13.2,4.5l22.2,3.4c12.7,1.9,22,5.5,28,10.7
		c6,5.2,8.9,12.8,8.9,22.8c0,7.7-2.1,14.3-6.3,19.9c-4.2,5.6-10.4,9.9-18.5,13c-8.1,3.1-17.9,4.6-29.3,4.6
		C87.9,159.4,75.9,156.9,65.6,151.9z"/>
</g>
</svg>
